# xmcd
#
# Track frame offsets:
#	150
#	21785
#	46525
#	69237
#	89436
#	109895
#	128497
#	149495
#	179329
#	202433
#	235143
#	250777
#	272713
#
# Disc length: 3814
#
# Revision: 1
# Processed by: cddbd v1.5.1PL0 Copyright (c) Steve Scherf et al.
# Submitted via: CDex 1.51
# Normalized: r0:DSETVAR1,TDELIM( - )
#
DISCID=b60ee40d
DTITLE=Various Artist - Graces O Asia
DYEAR=2002
DGENRE=New Age
TTITLE0=Shao Rong - Bamboo Dance
TTITLE1=Jiang Xiao-Qing - Winter Sky
TTITLE2=Missa Johnouchi - Marco Polo
TTITLE3=Missa Johnouchi - Shigure
TTITLE4=Eri Sugai - First Love
TTITLE5=Missa Johnouchi - The Last Caravan
TTITLE6=Shao Rong - Wild Rose
TTITLE7=Mizuyo Komiya - Sea Wind (Shiokazeni Fukarete)
TTITLE8=Missa Johnouchi - Springtime
TTITLE9=Shao Rong - One More Tale
TTITLE10=Mizuyo Komiya - Path
TTITLE11=Eri Sugai - Aqua
TTITLE12=Jiang Xiao Qing - Cosmos
EXTD=YEAR: 2002
EXTT0=
EXTT1=
EXTT2=
EXTT3=
EXTT4=
EXTT5=
EXTT6=
EXTT7=
EXTT8=
EXTT9=
EXTT10=
EXTT11=
EXTT12=
PLAYORDER=
